<?xml version="1.0" standalone="no"?><!DOCTYPE svg PUBLIC "-//W3C//DTD SVG 1.1//EN" "http://www.w3.org/Graphics/SVG/1.1/DTD/svg11.dtd"><svg t="1780481885712" class="icon" viewBox="0 0 1024 1024" version="1.1" xmlns="http://www.w3.org/2000/svg" p-id="3991" xmlns:xlink="http://www.w3.org/1999/xlink" width="256" height="256"><path d="M418.474667 916.138667H0V135.168h401.066667v89.770667h-300.373334v250.197333H378.88v89.088H100.352v262.826667h318.122667v89.088z m604.501333 0H925.013333v-317.098667c0-114.688-41.642667-172.032-125.269333-172.032-43.349333 0-78.848 16.042667-106.496 48.469333-27.648 32.426667-41.642667 73.045333-41.642667 122.538667v318.122667H552.96V358.4h98.645333v92.16h2.048c41.984-70.314667 102.741333-105.472 182.272-105.472 61.098667 0 107.52 19.456 139.264 58.709333 31.744 39.253333 47.786667 96.256 47.786667 171.008v341.333334z m0 0" p-id="3992" fill="#2c2c2c"></path></svg>